
<svg xmlns="http://www.w3.org/2000/svg" version="1.1" xmlns:xlink="http://www.w3.org/1999/xlink" xmlns:svgjs="http://svgjs.dev/svgjs" width="500" height="500" viewBox="0 0 1500 1500"><rect width="1500" height="1500" fill="#000000"></rect><g transform="matrix(0.6666666666666666,0,0,0.6666666666666666,249.39163731827796,433.58974358974365)"><svg viewBox="0 0 390 247" data-background-color="#00ffef" preserveAspectRatio="xMidYMid meet" height="950" width="1500" xmlns="http://www.w3.org/2000/svg" xmlns:xlink="http://www.w3.org/1999/xlink"><g id="tight-bounds" transform="matrix(1,0,0,1,0.2372614458715816,-0.09999999999999432)"><svg viewBox="0 0 389.52547710825684 247.2" height="247.2" width="389.52547710825684"><g><svg viewBox="0 0 389.52547710825684 247.2" height="247.2" width="389.52547710825684"><g><svg viewBox="0 0 204.67706422018347 247.2" height="247.2" width="204.67706422018347"><g id="textblocktransform"><svg viewBox="0 0 204.67706422018347 247.2" height="247.2" width="204.67706422018347" id="textblock"><g><svg viewBox="0 0 204.67706422018347 247.2" height="247.2" width="204.67706422018347"><g transform="matrix(1,0,0,1,0,0)"><svg width="204.67706422018347" viewBox="3.3 -35 36.1 43.6" height="247.2" data-palette-color="#374151"><path d="M3.3 0L3.3-35 14.5-35Q18.85-35 22.23-32.9 25.6-30.8 27.5-26.85 29.4-22.9 29.4-17.5L29.4-17.5Q29.4-12.1 27.5-8.15 25.6-4.2 22.23-2.1 18.85 0 14.5 0L14.5 0 3.3 0ZM7.85-4.15L13.65-4.15Q18.9-4.15 21.63-7.65 24.35-11.15 24.35-17.5L24.35-17.5Q24.35-23.85 21.63-27.35 18.9-30.85 13.65-30.85L13.65-30.85 7.85-30.85 7.85-4.15ZM31.35 8.6L30.9 4.55Q33.2 4.55 34.02 3.65 34.85 2.75 34.85 0.15L34.85 0.15 34.85-35 39.4-35 39.4 1.6Q39.4 5.05 37.55 6.83 35.7 8.6 32.4 8.6L32.4 8.6 31.35 8.6Z" opacity="1" transform="matrix(1,0,0,1,0,0)" fill="#ffffff" class="wordmark-text-0" data-fill-palette-color="primary" id="text-0"></path></svg></g></svg></g></svg></g></svg></g><g transform="matrix(1,0,0,1,263.03505142018344,60.35478715596331)"><svg viewBox="0 0 126.49042568807337 126.49042568807337" height="126.49042568807337" width="126.49042568807337"><g><svg xmlns="http://www.w3.org/2000/svg" xmlns:xlink="http://www.w3.org/1999/xlink" version="1.1" x="0" y="0" viewBox="0 0 96 96" enable-background="new 0 0 96 96" xml:space="preserve" height="126.49042568807337" width="126.49042568807337" class="icon-icon-0" data-fill-palette-color="accent" id="icon-0"><path d="M28.032 44H32v0.652c0 8.872 7.176 16.092 16 16.092s16-7.229 16-16.092V44h3.968C72.396 44 76 40.396 76 35.968v-3.94c0-3.096-1.788-5.772-4.372-7.108C71.844 24.584 72 24.204 72 23.792 72 10.672 61.236 0 48 0 34.764 0 24 10.672 24 24c0 0.368 0.128 0.68 0.3 0.96-2.544 1.356-4.3 4-4.3 7.072v3.936C20 40.396 23.604 44 28.032 44zM60 26v2.704c-3.637-0.32-7.428-1.896-9.645-3.716-3.268 3.86-10.531 6.2-14.355 6.924v-4.036c4.208-0.964 12-4.112 12-6.94 0-1.1 0.896-2 2-2 1.1 0 2 0.9 2 2 0.264 0.992 4.141 3.372 8 3.82V26zM28 23.788C28 12.872 36.972 4 48 4c11.027 0 20 8.88 20 19.788V24c-0.008 0-0.02 0-0.032 0h-4.004C63.764 15 56.848 8 48 8c-8.764 0-15.628 6.984-15.94 16h-4.028c-0.024 0-0.048 0.004-0.076 0.004C27.964 23.928 28 23.864 28 23.788z" fill="#ffffff" data-fill-palette-color="accent"></path><path d="M94 80h-6v-6c0-1.1-0.9-2-2-2H54c-1.1 0-2 0.9-2 2v6h-8v-6c0-1.1-0.896-2-2-2H10c-1.104 0-2 0.9-2 2v6H2c-1.104 0-2 0.9-2 2v12c0 1.1 0.896 2 2 2h92c1.1 0 2-0.9 2-2V82C96 80.9 95.1 80 94 80z" fill="#ffffff" data-fill-palette-color="accent"></path><path d="M48 74c0-3.313 2.691-6 6-6h25.796c-0.86-6.844-6.772-13.384-13.472-15.344C63.24 59.756 56.195 64.74 48 64.74c-8.196 0-15.24-4.992-18.324-12.092-6.7 1.968-12.616 8.5-13.472 15.352H42C45.308 68 48 70.688 48 74z" fill="#ffffff" data-fill-palette-color="accent"></path></svg></g></svg></g></svg></g><defs></defs></svg><rect width="389.52547710825684" height="247.2" fill="none" stroke="none" visibility="hidden"></rect></g></svg></g></svg>